*******************************************************************************
                             Touch To Kill (1979)
*******************************************************************************

-------------------------------------------------------------------------------
                              General Information
-------------------------------------------------------------------------------
Type.................: Movie



Video Format.........: AVI
Video Bitrate........: 2198
Resolution...........: 720 x 540
Color................: 8 bit
Source...............: DVD 4x3
Original Format......: NTSC
Genre................: War
IMDb Rating..........: 5.3
Movie Information....: http://www.imdb.com/title/tt0169826

-------------------------------------------------------------------------------
                               Post Information
-------------------------------------------------------------------------------
Posted by............: RadioResearch
Posted on............: 3/2/2013

-------------------------------------------------------------------------------
                                 Release Notes
-------------------------------------------------------------------------------
SEEDBOX SUPPORTED!!

Original Title: Dure a Morire

Deep in the African Bush there is a mercenary with a contract for 1 million 
dollars on his head.... just his head! The rest of him will be vulture meat.

A hit man infiltrates an attack squad to stalk the butchering renegade 
mercenary. But with all the cash up for grabs, everybody on the squad wants a 
cut of the loot.

War-hardened killers will double cross each other in the devious race to hack-
off the prize! 

Oh yeah!  More Macaroni Combat with a plot inside a plot of mercenaries in 
Africa.  This one has its moments, but is obviously made from old 16mm or 35mm 
prints.  I have never seen this anywhere, so I actually bought the DVD and 
ripped it. :-)

Enjoy!

RadioResearch

General
Complete name                            : G:Tough to Kill 
(1979)TOUGH_TO_KILL_Title1.avi
Format                                   : AVI
Format/Info                              : Audio Video Interleave
Format profile                           : OpenDML
File size                                : 1.31 GiB
Duration                                 : 1h 25mn
Overall bit rate                         : 2 198 Kbps
Movie name                               : TOUGH_TO_KILL
Director                                 : Joe_D_Amato
Genre                                    : Action
Writing application                      : MEncoder 5.0
Writing library                          : [= DigiArty videodll! =]

Video
ID                                       : 0
Format                                   : MPEG-4 Visual
Format profile                           : Simple@L1
Format settings, BVOP                    : No
Format settings, QPel                    : No
Format settings, GMC                     : No warppoints
Format settings, Matrix                  : Default (H.263)
Codec ID                                 : DX50
Codec ID/Hint                            : DivX 5
Duration                                 : 1h 25mn
Bit rate                                 : 1 999 Kbps
Width                                    : 720 pixels
Height                                   : 540 pixels
Display aspect ratio                     : 4:3
Frame rate                               : 29.970 fps
Color space                              : YUV
Chroma subsampling                       : 4:2:0
Bit depth                                : 8 bits
Scan type                                : Progressive
Compression mode                         : Lossy
Bits/(Pixel*Frame)                       : 0.172
Stream size                              : 1.19 GiB (91%)
Writing library                          : Lavc54.71.100

Audio
ID                                       : 1
Format                                   : AC-3
Format/Info                              : Audio Coding 3
Mode extension                           : CM (complete main)
Format settings, Endianness              : Big
Codec ID                                 : 2000
Duration                                 : 1h 25mn
Bit rate mode                            : Constant
Bit rate                                 : 192 Kbps
Channel(s)                               : 2 channels
Channel positions                        : Front: L R
Sampling rate                            : 48.0 KHz
Bit depth                                : 16 bits
Compression mode                         : Lossy
Stream size                              : 117 MiB (9%)
Alignment                                : Split accross interleaves
Interleave, duration                     : 500 ms (14.98 video frames)
Interleave, preload duration             : 500 ms




-------------------------------------------------------------------------------
Generated with Cool NFO Creator - http://fly.to/coolbeans
-------------------------------------------------------------------------------
